<svg xmlns="http://www.w3.org/2000/svg" fill="none">
	<symbol id="icon-1"  viewBox="0 0 48 49" xmlns="http://www.w3.org/2000/svg">
		<g><path d="M0 44.075C0 37.4 0 30.8 0 24.125C0.3 23.15 1.05 22.625 1.875 22.175C2.175 22.025 2.475 21.875 2.775 21.8C3.15 21.725 3.225 21.5 3.225 21.2C3.225 16.475 3.225 11.825 3.225 7.1C3.225 3.725 5.625 1.25 8.85 1.25C19.95 1.25 31.125 1.25 42.225 1.25C43.8 1.25 44.775 2.225 44.775 3.875C44.775 6.05 44.775 8.225 44.775 10.4C44.775 10.55 44.775 10.775 44.775 10.925C47.025 11.675 48 12.95 48 15.275C48 23 48 30.8 48 38.525C48 38.975 48 39.425 47.85 39.875C47.4 41.675 45.825 42.875 43.8 42.875C37.125 42.875 30.525 42.875 23.85 42.875C23.625 42.875 23.475 42.875 23.25 42.875C23.25 42.95 23.25 42.95 23.25 42.95C23.25 43.025 23.25 43.1 23.25 43.175C23.325 44.3 22.8 45.125 21.825 45.65C21 46.1 20.1 46.475 19.275 46.7C16.875 47.375 14.325 47.6 11.85 47.6C8.925 47.6 6 47.375 3.15 46.4C1.8 46.025 0.525 45.5 0 44.075ZM46.425 22.85C46.425 22.625 46.425 22.475 46.425 22.325C46.425 19.925 46.425 17.525 46.425 15.125C46.425 13.4 45.45 12.425 43.725 12.425C32.175 12.425 20.55 12.425 9 12.425C7.5 12.425 6.15 11.975 5.025 11C4.95 10.925 4.875 10.925 4.8 10.85C4.8 14.3 4.8 17.675 4.8 21.05C4.95 21.05 5.1 21.05 5.25 20.975C9.225 20.15 13.2 20.15 17.25 20.825C18.825 21.05 20.4 21.5 21.825 22.325C22.725 23 23.25 23.75 23.25 24.95C23.175 30.2 23.25 35.375 23.25 40.625C23.25 40.85 23.25 41 23.25 41.225C23.4 41.225 23.55 41.225 23.7 41.225C30.45 41.225 37.125 41.225 43.875 41.225C45.45 41.225 46.5 40.25 46.5 38.6C46.5 36.2 46.5 33.725 46.5 31.325C46.5 31.175 46.5 31.025 46.5 30.875C45.225 30.875 43.95 30.875 42.75 30.875C42.15 30.875 41.55 30.8 40.95 30.575C39.225 29.9 38.25 27.95 38.625 26.15C39 24.275 40.575 22.925 42.45 22.925C43.65 22.85 45 22.85 46.425 22.85ZM43.2 7.625C42.975 7.625 42.75 7.625 42.525 7.625C30.9 7.625 19.2 7.625 7.575 7.625C6.75 7.625 6.375 7.325 6.375 6.8C6.375 6.275 6.75 5.975 7.575 5.975C19.2 5.975 30.9 5.975 42.525 5.975C42.75 5.975 42.9 5.975 43.2 5.975C43.2 5.225 43.2 4.55 43.2 3.95C43.2 3.05 42.975 2.825 42.075 2.825C31.05 2.825 20.1 2.825 9.075 2.825C8.7 2.825 8.325 2.825 8.025 2.9C6 3.35 4.65 5.225 4.8 7.1C5.025 9.2 6.675 10.775 8.775 10.775C20.1 10.775 31.425 10.775 42.825 10.775C42.975 10.775 43.05 10.775 43.2 10.7C43.2 9.8 43.2 8.75 43.2 7.625ZM11.625 22.025C9.375 22.025 7.125 22.175 4.95 22.775C3.975 23.075 3 23.45 2.1 23.9C1.425 24.275 1.425 24.65 2.1 25.025C2.625 25.325 3.15 25.55 3.675 25.775C5.4 26.375 7.125 26.6 8.925 26.75C12.075 26.975 15.225 26.9 18.375 26.15C19.275 25.925 20.175 25.55 21.075 25.1C21.825 24.725 21.825 24.275 21.075 23.825C20.625 23.525 20.1 23.3 19.575 23.15C16.95 22.25 14.325 22.1 11.625 22.025ZM1.575 26.675C1.575 27.35 1.65 28.025 1.575 28.7C1.5 29.3 1.8 29.75 2.325 29.975C3.45 30.35 4.5 30.875 5.7 31.1C8.85 31.775 12 31.775 15.225 31.475C17.025 31.325 18.75 30.95 20.475 30.275C21.3 29.9 21.825 29.45 21.675 28.4C21.6 27.875 21.675 27.275 21.675 26.75C15.15 29.075 7.875 29.075 1.575 26.675ZM1.575 36.275C1.575 37.025 1.65 37.7 1.575 38.375C1.575 38.975 1.8 39.35 2.25 39.5C3.075 39.875 3.9 40.25 4.8 40.475C9 41.525 13.275 41.45 17.55 40.7C18.75 40.475 19.95 40.175 21 39.5C21.225 39.35 21.6 39.125 21.6 38.825C21.675 38 21.6 37.1 21.6 36.2C18.375 37.7 15 38 11.625 38C8.175 38.075 4.8 37.775 1.575 36.275ZM1.575 41.075C1.575 41.825 1.575 42.5 1.575 43.25C1.575 43.775 1.725 44.15 2.175 44.375C3 44.75 3.75 45.125 4.575 45.35C8.85 46.4 13.2 46.4 17.55 45.575C18.675 45.35 19.8 44.825 20.925 44.45C21.15 44.375 21.525 44.075 21.525 43.85C21.6 43.025 21.525 42.125 21.525 41.225C15.225 43.475 7.875 43.475 1.575 41.075ZM21.6 31.475C18.375 32.975 15 33.275 11.625 33.275C8.25 33.275 4.8 32.975 1.65 31.475C1.65 32.3 1.65 33.05 1.65 33.8C1.65 34.175 1.8 34.475 2.1 34.625C2.7 34.925 3.3 35.225 3.9 35.45C5.85 36.125 7.95 36.35 9.975 36.425C12.825 36.575 15.675 36.425 18.45 35.675C19.35 35.45 20.25 35 21.075 34.625C21.3 34.55 21.6 34.175 21.6 33.95C21.6 33.2 21.6 32.375 21.6 31.475ZM46.35 29.225C46.35 27.575 46.35 26 46.35 24.425C44.925 24.425 43.575 24.425 42.225 24.425C41.025 24.5 40.05 25.55 40.05 26.75C40.05 27.95 40.95 29.075 42.15 29.15C43.5 29.3 44.925 29.225 46.35 29.225Z" />
		<path d="M38.0253 15.6505C36.0753 15.6505 34.1253 15.6505 32.2503 15.6505C31.9503 15.6505 31.6503 15.5005 31.4253 15.3505C31.2753 15.2005 31.2003 14.7505 31.3503 14.6005C31.5003 14.3755 31.8003 14.1505 32.1003 14.1505C32.7003 14.0755 33.3003 14.1505 33.9003 14.1505C37.2003 14.1505 40.4253 14.1505 43.7253 14.1505C43.8753 14.1505 43.9503 14.1505 44.1003 14.1505C44.5503 14.2255 44.9253 14.5255 44.9253 14.9755C44.9253 15.4255 44.5503 15.7255 44.1003 15.7255C42.6753 15.7255 41.3253 15.7255 39.9003 15.7255C39.2253 15.6505 38.6253 15.6505 38.0253 15.6505Z" />
		<path d="M27.9744 15.6512C27.6744 15.6512 27.3744 15.6512 27.1494 15.6512C26.6994 15.6512 26.3994 15.3512 26.3994 14.9012C26.3994 14.4512 26.6994 14.0762 27.1494 14.0762C27.7494 14.0762 28.2744 14.0762 28.8744 14.0762C29.3244 14.0762 29.6244 14.4512 29.6244 14.9012C29.6244 15.3512 29.2494 15.6512 28.7994 15.6512C28.4994 15.6512 28.2744 15.6512 27.9744 15.6512Z" />
		<path d="M42.3738 27.65C41.9238 27.65 41.5488 27.275 41.5488 26.825C41.5488 26.375 41.9238 26 42.3738 26C42.8238 26 43.1238 26.375 43.1238 26.75C43.1988 27.275 42.8238 27.65 42.3738 27.65Z" /></g>
	</symbol>
	<symbol id="phone" viewBox="0 0 17 17" >
		<g>
		<path d="M11.1004 11.5126L12.4466 10.17C12.6279 9.99147 12.8573 9.86923 13.1069 9.81816C13.3566 9.76709 13.6157 9.78939 13.8528 9.88236L15.4935 10.5356C15.7331 10.6327 15.9386 10.7983 16.0841 11.0116C16.2295 11.2249 16.3084 11.4764 16.3108 11.7343V14.731C16.3094 14.9065 16.2724 15.0799 16.202 15.2407C16.1317 15.4016 16.0294 15.5466 15.9014 15.667C15.7734 15.7873 15.6223 15.8807 15.4572 15.9413C15.292 16.0019 15.1163 16.0285 14.9406 16.0196C3.44416 15.3064 1.12444 5.59707 0.685738 1.88115C0.665373 1.69867 0.68398 1.51396 0.740334 1.33917C0.796689 1.16438 0.889513 1.00346 1.0127 0.86702C1.13589 0.730576 1.28665 0.621691 1.45507 0.547528C1.62348 0.473365 1.80573 0.435604 1.98983 0.436731H4.89248C5.1515 0.437496 5.40437 0.515525 5.61856 0.660783C5.83275 0.80604 5.99847 1.01188 6.09441 1.25184L6.74946 2.88804C6.84576 3.12362 6.87033 3.38228 6.8201 3.63171C6.76986 3.88114 6.64705 4.11028 6.467 4.2905L5.12085 5.63303C5.12085 5.63303 5.89609 10.8653 11.1004 11.5126Z" />
</g>
	</symbol>
	<symbol id="button-icon"  viewBox="0 0 20 21" >
		<g><path d="M1.57108 14.1738C1.06255 14.3667 0.802403 14.9382 1.0444 15.4253C1.90764 17.1628 3.26156 18.6187 4.94814 19.6059C6.91915 20.7597 9.2257 21.2041 11.4843 20.8651C13.7428 20.5261 15.8173 19.4242 17.3628 17.7426C18.9082 16.0611 19.8315 13.9012 19.9791 11.6221C20.1267 9.34298 19.4897 7.08203 18.174 5.21519C16.8584 3.34834 14.9434 1.9881 12.7474 1.36064C10.5514 0.733173 8.20678 0.876304 6.10343 1.76623C4.3036 2.52774 2.77321 3.7968 1.69308 5.40848C1.39028 5.86029 1.57455 6.46053 2.05395 6.71745C2.53335 6.97436 3.12554 6.7896 3.43917 6.34523C4.29907 5.12687 5.4856 4.16631 6.87091 3.58018C8.55998 2.86554 10.4428 2.7506 12.2062 3.25448C13.9697 3.75835 15.5075 4.85068 16.5641 6.34982C17.6206 7.84897 18.1321 9.66459 18.0136 11.4948C17.8951 13.325 17.1536 15.0595 15.9126 16.4098C14.6715 17.7602 13.0056 18.645 11.1919 18.9172C9.37821 19.1895 7.52596 18.8326 5.94318 17.9061C4.64503 17.1462 3.5923 16.0406 2.89672 14.7215C2.64302 14.2404 2.07961 13.9808 1.57108 14.1738Z" />
		<path d="M1.25 10.1932C0.817777 10.1932 0.467391 10.5436 0.467391 10.9758C0.467391 11.4081 0.817777 11.7584 1.25 11.7584L1.25 10.1932ZM14.3034 11.5292C14.609 11.2236 14.609 10.7281 14.3034 10.4224L9.3229 5.44195C9.01727 5.13632 8.52175 5.13632 8.21612 5.44195C7.91049 5.74758 7.91049 6.2431 8.21612 6.54873L12.6432 10.9758L8.21612 15.4029C7.91049 15.7086 7.91049 16.2041 8.21612 16.5097C8.52175 16.8153 9.01727 16.8153 9.3229 16.5097L14.3034 11.5292ZM1.25 11.7584L13.75 11.7584V10.1932L1.25 10.1932L1.25 11.7584Z" /></g>
	</symbol>
	<symbol id="arrow-down" viewBox="0 0 11 9">
		<g><path d="M6.46871 8.43433C6.04061 9.1122 5.05207 9.11219 4.62397 8.43433L0.934642 2.59253C0.475889 1.86613 0.997874 0.919111 1.85701 0.919111L9.23567 0.919112C10.0948 0.919112 10.6168 1.86613 10.158 2.59253L6.46871 8.43433Z"  fill-opacity="0.9"/></g>
	</symbol>
	<symbol id="target"  viewBox="0 0 39 39">
		<g><path d="M27.6406 12.5C26.5719 13.5687 25.5032 14.6374 24.3752 15.7654C25.6814 17.4872 26.1563 19.4465 25.6814 21.5839C25.2658 23.2463 24.3158 24.6118 22.8909 25.5618C20.1004 27.521 16.36 27.1054 14.0445 24.6118C11.6697 22.0588 11.5509 18.3184 13.8071 15.6467C15.8257 13.2125 19.7442 12.025 23.2471 14.578C24.3158 13.5093 25.3845 12.4406 26.4532 11.3126C24.5533 9.70955 22.3566 8.7596 19.7442 8.58149C19.7442 9.29395 19.7442 9.94703 19.7442 10.6595C19.7442 11.2532 19.4473 11.6094 18.9724 11.6094C18.4974 11.6094 18.2005 11.2532 18.2005 10.6595C18.2005 9.11583 18.2005 7.63155 18.2005 6.08789C18.2005 5.90977 18.2005 5.73166 18.2005 5.55354C16.7163 5.61291 15.2913 5.90977 13.9258 6.44411C9.17607 8.344 6.14812 11.7876 4.90132 16.7748C4.90132 16.8935 4.84195 16.9529 4.84195 17.0716C4.72321 17.4872 4.36698 17.7247 3.95138 17.6653C3.53578 17.5466 3.29829 17.1904 3.35766 16.7154C3.77326 14.578 4.60446 12.6188 5.85127 10.897C8.81984 6.91909 12.679 4.6036 17.6068 4.12863C17.7849 4.12863 18.0224 4.06925 18.2599 4.06925C18.2599 3.41617 18.2599 2.70371 18.2599 2.05062C18.2599 1.33816 18.4974 0.981934 19.0317 0.981934C19.5067 0.981934 19.8036 1.33816 19.8036 1.99125C19.8036 3.53491 19.8036 5.0192 19.8036 6.56286C19.8036 6.74097 19.8036 6.91909 19.8036 7.0972C22.7722 7.33469 25.3845 8.40338 27.5812 10.3033C27.9375 9.94704 28.2343 9.59081 28.6499 9.17521C27.8781 8.64086 27.1656 8.04715 26.3344 7.57217C25.0283 6.80034 23.6627 6.20663 22.1784 5.90977C22.0597 5.90977 21.941 5.8504 21.8816 5.8504C21.466 5.73166 21.2285 5.31606 21.3472 4.90045C21.466 4.48485 21.8222 4.24737 22.2972 4.36611C24.1971 4.72234 25.9188 5.4348 27.5219 6.50349C28.2937 7.03783 29.0062 7.57217 29.8967 8.22526C29.9561 7.98777 30.1342 7.80966 30.1342 7.63155C30.1342 6.80034 30.1342 6.02851 30.1342 5.19731C30.1342 4.90045 30.253 4.54423 30.4905 4.36611C31.4404 3.35679 32.4497 2.34748 33.459 1.33816C33.7559 1.04131 34.0527 0.922562 34.409 1.10068C34.7652 1.21942 34.8839 1.57565 34.8839 1.93188C34.8839 2.70371 34.8839 3.41617 34.8839 4.24737C35.6558 4.24737 36.4276 4.24737 37.1994 4.24737C37.615 4.24737 37.9119 4.36611 38.09 4.72234C38.2088 5.13794 38.09 5.4348 37.7932 5.67229C36.7838 6.62223 35.8339 7.63155 34.8839 8.58149C34.6465 8.81898 34.2902 8.93772 33.9934 8.93772C33.2215 8.99709 32.3903 8.93772 31.6185 8.93772C31.4404 8.93772 31.2029 9.11583 30.9654 9.17521C32.2716 10.6595 33.2215 12.1438 33.934 13.8656C34.6465 15.5873 35.0027 17.3091 35.1214 19.209C35.8339 19.209 36.5463 19.209 37.1994 19.209C37.7932 19.209 38.1494 19.5059 38.1494 19.9808C38.1494 20.4558 37.7932 20.7527 37.1994 20.7527C35.6558 20.7527 34.1121 20.7527 32.5685 20.7527C32.3903 20.7527 32.2122 20.7527 32.1529 20.7527C31.7966 22.0588 31.6185 23.365 31.1435 24.5524C29.5999 28.5303 26.75 31.1427 22.6534 32.3895C22.5347 32.3895 22.4753 32.4488 22.3566 32.4488C21.8816 32.5676 21.5254 32.3301 21.4066 31.9145C21.2879 31.4989 21.5254 31.1427 22.0003 30.9646C22.2972 30.8458 22.594 30.7864 22.8315 30.6677C27.3438 28.9459 29.8967 25.6211 30.4311 20.8714C30.4311 20.812 30.4311 20.812 30.4311 20.6933C29.778 20.6933 29.0655 20.6933 28.4124 20.6933C27.8187 20.6933 27.4625 20.3964 27.4625 19.9215C27.4625 19.4465 27.8187 19.1496 28.4124 19.1496C29.9561 19.1496 31.4404 19.1496 32.9841 19.1496C33.1622 19.1496 33.3403 19.1496 33.5184 19.1496C33.2809 15.7654 32.0935 12.7969 29.8967 10.3033C29.5405 10.6595 29.1843 11.0157 28.8281 11.372C28.8874 11.4313 28.9468 11.5501 29.0655 11.6688C30.1936 13.0344 31.0248 14.578 31.4998 16.2998C31.7373 17.0122 31.5591 17.4278 31.0842 17.606C30.6092 17.7247 30.253 17.4278 30.0749 16.7748C29.4811 15.2311 28.7093 13.8062 27.6406 12.5ZM22.1191 15.7654C20.3379 14.2812 17.2506 14.1624 15.1726 16.2998C13.154 18.4372 13.154 21.5839 15.232 23.6619C17.31 25.7399 20.516 25.7992 22.594 23.7806C24.7314 21.762 24.7314 18.6747 23.1878 16.7748C22.8909 17.0716 22.6534 17.3091 22.3566 17.606C22.1191 17.7841 22.1784 17.9622 22.2972 18.1997C22.7128 19.0309 22.8909 19.8621 22.6534 20.7527C22.1784 22.8307 20.0411 24.1368 18.0224 23.6025C15.9444 23.0681 14.6976 20.8714 15.2913 18.8528C15.9444 16.7748 18.1412 15.528 20.1004 16.3592C20.9316 16.7154 21.4066 16.4779 21.8222 15.8842C22.0003 15.8842 22.0597 15.8248 22.1191 15.7654ZM21.0504 18.9715C20.516 19.5059 20.0411 20.0402 19.5661 20.5152C19.2692 20.812 18.8536 20.812 18.5568 20.5152C18.2599 20.2183 18.2005 19.8621 18.438 19.5059C18.5568 19.3871 18.6755 19.2684 18.7943 19.1496C19.2099 18.734 19.6255 18.3184 20.0411 17.9028C18.913 17.4278 17.7849 17.7841 17.1912 18.6747C16.5975 19.5652 16.7163 20.7527 17.4881 21.5245C18.2599 22.2963 19.388 22.4151 20.3379 21.8213C21.1691 21.2276 21.5254 20.0996 21.0504 18.9715ZM31.6185 7.39406C32.2716 7.39406 32.8653 7.39406 33.459 7.39406C33.5778 7.39406 33.7559 7.39406 33.8153 7.33469C34.2902 6.85972 34.8246 6.32537 35.4183 5.73166C34.8839 5.73166 34.4683 5.73166 34.1121 5.73166C33.5778 5.73166 33.2809 5.4348 33.2809 4.90045C33.2809 4.48485 33.2809 4.06925 33.2809 3.53491C32.6872 4.12863 32.2122 4.6036 31.7373 5.07857C31.6779 5.13794 31.6185 5.25668 31.6185 5.37543C31.5591 6.08789 31.6185 6.6816 31.6185 7.39406Z" />
<path d="M3.00158 20.7525C2.34849 20.7525 1.63604 20.7525 0.923577 20.7525C0.329862 20.7525 -0.0263672 20.4557 -0.0263672 19.9807C-0.0263672 19.5057 0.329862 19.2682 0.864206 19.2089C2.58598 19.2089 4.24838 19.2089 5.97016 19.2089C6.20764 18.1995 6.32639 17.2496 6.62325 16.2996C6.86073 15.5278 7.21696 14.756 7.51382 14.0435C7.75131 13.5686 8.16691 13.3904 8.58251 13.6279C8.99811 13.8654 9.11685 14.281 8.81999 14.756C8.10753 16.1809 7.63256 17.6652 7.57319 19.2682C8.22628 19.2682 8.81999 19.2682 9.47308 19.2682C10.1855 19.2682 10.5418 19.5057 10.6011 20.0401C10.6011 20.5744 10.2449 20.8119 9.47308 20.8119C7.98879 20.8119 6.56387 20.8119 5.07959 20.8119C4.90147 20.8119 4.72336 20.8119 4.54524 20.8119C4.60461 22.0587 4.78273 23.2461 5.19833 24.3742C6.97948 29.5395 10.4824 32.8049 15.7665 34.1111C15.9446 34.1705 16.1821 34.2299 16.3602 34.3486C16.657 34.5861 16.7758 34.8829 16.5977 35.2392C16.4195 35.5954 16.1227 35.7735 15.7071 35.7141C13.8666 35.2985 12.0854 34.6455 10.4824 33.6361C6.20765 30.6676 3.71404 26.6303 3.12032 21.4056C3.12032 21.2275 3.06095 21.0494 3.06095 20.8713C3.06095 20.8713 3.06095 20.8119 3.00158 20.7525Z" />
<path d="M19.8041 35.9522C19.8041 36.6646 19.8041 37.3177 19.8041 38.0302C19.8041 38.6239 19.5073 38.9801 19.0323 38.9801C18.5573 38.9801 18.2604 38.6239 18.2604 38.0302C18.2604 36.4865 18.2604 34.9429 18.2604 33.3992C18.2604 33.2211 18.2604 33.043 18.2604 32.9242C17.4886 32.8055 16.7762 32.6867 16.0637 32.5086C11.2546 31.2618 8.10791 28.2933 6.62363 23.5435C6.56425 23.3654 6.50488 23.2467 6.50488 23.0686C6.50488 22.653 6.683 22.4155 7.03923 22.2967C7.39546 22.178 7.75169 22.2967 7.9298 22.653C7.98917 22.8311 8.04854 23.0092 8.10791 23.1873C9.41409 27.6995 13.6295 31.1431 18.2604 31.3212C18.2604 30.6681 18.2604 29.9557 18.2604 29.3026C18.2604 28.7089 18.5573 28.3526 18.9729 28.3526C19.4479 28.3526 19.7447 28.7089 19.7447 29.3026C19.7447 30.7869 19.7447 32.3305 19.7447 33.8148C19.7447 33.9929 19.7447 34.171 19.7447 34.4679C20.6947 34.2898 21.6446 34.171 22.5352 33.9929C24.1382 33.6367 25.5631 32.9836 26.9287 32.093C27.0474 32.0337 27.1662 31.9149 27.2849 31.8555C27.6412 31.7368 27.938 31.7962 28.1755 32.093C28.413 32.3899 28.3536 32.7461 28.1161 32.9836C27.9974 33.1023 27.8193 33.2211 27.6412 33.3398C25.3257 34.8241 22.7727 35.6553 20.0416 35.8928C20.0416 35.8928 19.9229 35.9522 19.8041 35.9522Z" />
<path d="M31.976 28.9461C31.2041 28.9461 30.9072 28.3524 31.2041 27.6992C31.7385 26.6305 32.2728 25.5024 32.7478 24.3743C32.926 23.8993 33.0447 23.3649 33.1635 22.8899C33.2822 22.4149 33.6385 22.1774 34.0541 22.2367C34.4697 22.3555 34.7072 22.7118 34.6478 23.2461C34.2916 25.1461 33.5791 26.868 32.5103 28.4711C32.3322 28.7086 32.0947 28.8867 31.976 28.9461Z" />
<path d="M12.2049 10.6593C12.0268 10.4812 11.7299 10.3031 11.6112 10.0062C11.433 9.64993 11.6705 9.35305 11.9674 9.11555C13.0955 8.40305 14.3424 7.8093 15.6487 7.51243C16.0643 7.39368 16.3612 7.51243 16.5393 7.86868C16.7768 8.2843 16.5987 8.81868 16.1237 8.9968C14.8768 9.35305 13.7487 9.82805 12.6799 10.5406C12.6205 10.5406 12.5018 10.5406 12.2049 10.6593Z" />
<path d="M10.8389 11.7874C10.8389 12.203 10.4826 12.4999 10.067 12.4999C9.65137 12.4999 9.35449 12.1436 9.35449 11.728C9.35449 11.3124 9.71074 11.0155 10.1264 11.0155C10.4826 11.0155 10.8389 11.3718 10.8389 11.7874Z" />
<path d="M30.6687 30.5492C30.6687 30.9648 30.3125 31.321 29.8969 31.321C29.4812 31.321 29.125 31.0242 29.125 30.6085C29.125 30.1929 29.4219 29.8367 29.8375 29.8367C30.3125 29.8367 30.6687 30.1335 30.6687 30.5492Z" /></g>
	</symbol>
	<symbol id="site"  viewBox="0 0 38 38">
		<g><path d="M2.53333 32.1417H19.6333V34.0417C19.6333 35.0906 20.4844 35.9417 21.5333 35.9417H24.0667C24.6208 35.9417 25.1453 35.6943 25.5016 35.2786C25.5115 35.2786 25.5214 35.2786 25.5312 35.2687C25.9964 35.7042 26.6 35.9417 27.2333 35.9417H34.8333C35.8823 35.9417 36.7333 35.0906 36.7333 34.0417C36.7333 33.7151 36.6443 33.3885 36.476 33.1115C37.337 32.5771 37.624 31.4589 37.1094 30.5781C37.5844 30.2812 37.901 29.7865 37.9802 29.2323C38.0594 28.6781 37.8813 28.1141 37.5052 27.7083C38.0099 27.1542 38.1385 26.3526 37.8318 25.6698C37.525 24.987 36.8422 24.5417 36.0901 24.5417H34.1901V4.90833C34.1901 3.51302 33.0521 2.375 31.6568 2.375H2.53333C1.13802 2.375 0 3.51302 0 4.90833V29.6083C0 31.0036 1.13802 32.1417 2.53333 32.1417ZM24.0667 34.675H21.5333C21.187 34.675 20.9 34.388 20.9 34.0417V28.3417C20.9 27.9953 21.187 27.7083 21.5333 27.7083H24.0667C24.413 27.7083 24.7 27.9953 24.7 28.3417V34.0417C24.7 34.388 24.413 34.675 24.0667 34.675ZM36.7333 26.4417C36.7333 26.788 36.4464 27.075 36.1 27.075H34.2C33.8536 27.075 33.5667 27.362 33.5667 27.7083C33.5667 28.0547 33.8536 28.3417 34.2 28.3417H36.1C36.4464 28.3417 36.7333 28.6286 36.7333 28.975C36.7333 29.3214 36.4464 29.6083 36.1 29.6083H34.2C33.8536 29.6083 33.5667 29.8953 33.5667 30.2417C33.5667 30.588 33.8536 30.875 34.2 30.875H35.4667C35.813 30.875 36.1 31.162 36.1 31.5083C36.1 31.8547 35.813 32.1417 35.4667 32.1417H34.2C33.8536 32.1417 33.5667 32.4286 33.5667 32.775C33.5667 33.1214 33.8536 33.4083 34.2 33.4083H34.8333C35.1797 33.4083 35.4667 33.6953 35.4667 34.0417C35.4667 34.388 35.1797 34.675 34.8333 34.675H27.2333C26.5307 34.675 25.9667 34.1109 25.9667 33.4083V28.0745C26.7583 27.5797 27.3521 26.8177 27.649 25.937C28.213 24.2448 28.5 22.4734 28.5 20.6922C28.5 20.6031 28.5594 20.5339 28.6385 20.5042C28.8563 20.4646 29.4203 20.3656 29.9547 21.4146C30.2516 22.0182 30.4 22.6813 30.3901 23.3641V25.175C30.3901 25.5214 30.6771 25.8083 31.0234 25.8083H36.0901C36.4464 25.8083 36.7333 26.0953 36.7333 26.4417ZM31.6667 24.5417V23.3641C31.6766 22.4932 31.4786 21.6224 31.0927 20.8406C30.4693 19.6234 29.5193 19.0594 28.4208 19.2573C27.7281 19.3859 27.2333 19.9896 27.2333 20.6922C27.2333 22.3349 26.9661 23.9776 26.4516 25.5411C26.2536 26.125 25.8677 26.6198 25.3531 26.9661C25.0068 26.6396 24.5417 26.4615 24.0667 26.4516H21.5333C20.4844 26.4516 19.6333 27.3026 19.6333 28.3516V30.8849H2.53333C1.83073 30.8849 1.26667 30.3208 1.26667 29.6182V8.70833H32.9333V24.5417H31.6667ZM2.53333 3.64167H31.6667C32.3693 3.64167 32.9333 4.20573 32.9333 4.90833V7.44167H1.26667V4.90833C1.26667 4.20573 1.83073 3.64167 2.53333 3.64167Z" />
<path fill-rule="evenodd" clip-rule="evenodd" d="M3.79987 5.54154C3.79987 5.88789 3.51289 6.17487 3.16654 6.17487C2.82018 6.17487 2.5332 5.88789 2.5332 5.54154C2.5332 5.19518 2.82018 4.9082 3.16654 4.9082C3.51289 4.9082 3.79987 5.19518 3.79987 5.54154Z" fill="white"/>
<path fill-rule="evenodd" clip-rule="evenodd" d="M6.33307 5.54154C6.33307 5.88789 6.04609 6.17487 5.69974 6.17487C5.35339 6.17487 5.06641 5.88789 5.06641 5.54154C5.06641 5.19518 5.35339 4.9082 5.69974 4.9082C6.04609 4.9082 6.33307 5.19518 6.33307 5.54154Z" fill="white"/>
<path fill-rule="evenodd" clip-rule="evenodd" d="M8.86628 5.54154C8.86628 5.88789 8.5793 6.17487 8.23294 6.17487C7.88659 6.17487 7.59961 5.88789 7.59961 5.54154C7.59961 5.19518 7.88659 4.9082 8.23294 4.9082C8.5793 4.9082 8.86628 5.19518 8.86628 5.54154Z" fill="white"/>
<path d="M5.06699 22.0084H15.2003C16.2493 22.0084 17.1003 21.1574 17.1003 20.1084V12.5084C17.1003 11.4594 16.2493 10.6084 15.2003 10.6084H5.06699C4.01803 10.6084 3.16699 11.4594 3.16699 12.5084V20.1084C3.16699 21.1574 4.01803 22.0084 5.06699 22.0084ZM6.62064 20.7417L9.5498 16.1303L10.955 17.8917L9.15397 20.7417H6.62064ZM15.2003 20.7417H10.6581L13.993 15.4969L15.8337 17.8027V20.1183C15.8337 20.4548 15.5467 20.7417 15.2003 20.7417ZM4.43366 12.5084C4.43366 12.162 4.72064 11.8751 5.06699 11.8751H15.2003C15.5467 11.8751 15.8337 12.162 15.8337 12.5084V15.774L14.4285 14.0126C14.2998 13.8542 14.1019 13.7652 13.904 13.7751C13.6962 13.785 13.518 13.8938 13.3993 14.0719L11.6873 16.7636L9.99512 14.6459C9.86647 14.4876 9.66855 14.3985 9.47064 14.4084C9.26283 14.4183 9.0847 14.5271 8.96595 14.7053L5.12637 20.7417H5.06699C4.72064 20.7417 4.43366 20.4548 4.43366 20.1084V12.5084Z" fill="white"/>
<path fill-rule="evenodd" clip-rule="evenodd" d="M6.96589 13.7749C6.96589 14.1213 6.67891 14.4083 6.33255 14.4083C5.9862 14.4083 5.69922 14.1213 5.69922 13.7749C5.69922 13.4286 5.9862 13.1416 6.33255 13.1416C6.67891 13.1416 6.96589 13.4286 6.96589 13.7749Z" fill="white"/>
<path fill-rule="evenodd" clip-rule="evenodd" d="M30.4 11.2412H19.6333C19.287 11.2412 19 11.5282 19 11.8745C19 12.2209 19.287 12.5079 19.6333 12.5079H30.4C30.7464 12.5079 31.0333 12.2209 31.0333 11.8745C31.0333 11.5282 30.7464 11.2412 30.4 11.2412Z" fill="white"/>
<path fill-rule="evenodd" clip-rule="evenodd" d="M30.4 13.7754H19.6333C19.287 13.7754 19 14.0624 19 14.4087C19 14.7551 19.287 15.0421 19.6333 15.0421H30.4C30.7464 15.0421 31.0333 14.7551 31.0333 14.4087C31.0333 14.0624 30.7464 13.7754 30.4 13.7754Z" fill="white"/>
<path fill-rule="evenodd" clip-rule="evenodd" d="M30.4 16.3076H19.6333C19.287 16.3076 19 16.5946 19 16.941C19 17.2873 19.287 17.5743 19.6333 17.5743H30.4C30.7464 17.5743 31.0333 17.2873 31.0333 16.941C31.0333 16.5946 30.7464 16.3076 30.4 16.3076Z" fill="white"/>
<path fill-rule="evenodd" clip-rule="evenodd" d="M25.3333 18.8418H19.6333C19.287 18.8418 19 19.1288 19 19.4751C19 19.8215 19.287 20.1085 19.6333 20.1085H25.3333C25.6797 20.1085 25.9667 19.8215 25.9667 19.4751C25.9667 19.1288 25.6797 18.8418 25.3333 18.8418Z" fill="white"/>
<path fill-rule="evenodd" clip-rule="evenodd" d="M18.367 24.542H3.80033C3.45397 24.542 3.16699 24.829 3.16699 25.1753C3.16699 25.5217 3.45397 25.8087 3.80033 25.8087H18.367C18.7133 25.8087 19.0003 25.5217 19.0003 25.1753C19.0003 24.829 18.7133 24.542 18.367 24.542Z" fill="white"/>
<path fill-rule="evenodd" clip-rule="evenodd" d="M16.467 27.0742H3.80033C3.45397 27.0742 3.16699 27.3612 3.16699 27.7076C3.16699 28.0539 3.45397 28.3409 3.80033 28.3409H16.467C16.8133 28.3409 17.1003 28.0539 17.1003 27.7076C17.1003 27.3612 16.8133 27.0742 16.467 27.0742Z" fill="white"/></g>
</symbol>
<symbol id="friends"  viewBox="0 0 38 39" >
<g clip-path="url(#clip0_1458_23935)">
<path d="M10.5641 37.9972C9.87526 37.6911 9.56913 37.2319 9.64566 36.4665C9.64566 36.0839 9.64566 35.6247 9.64566 35.242C9.49259 35.242 9.33953 35.242 9.18646 35.242C7.34966 35.242 5.5894 35.242 3.7526 35.242C2.8342 35.242 2.375 34.7828 2.375 33.8644C2.375 33.4817 2.375 33.0991 2.375 32.7164C2.375 32.3337 2.6046 32.1041 2.91073 32.1041C3.21687 32.1041 3.44647 32.3337 3.44647 32.7164C3.44647 33.0991 3.44647 33.4817 3.44647 33.8644C3.44647 34.0175 3.523 34.094 3.67607 34.094C5.66593 34.094 7.57926 34.094 9.64566 34.094C9.64566 32.8695 9.64566 31.7215 9.64566 30.5735C8.19153 29.6551 7.73233 29.0428 7.50273 27.3591C6.58433 27.3591 5.66593 27.2825 4.82406 27.3591C4.05873 27.4356 3.523 28.2775 3.44647 29.1193C3.44647 29.502 3.44647 29.8081 3.44647 30.1908C3.44647 30.5735 3.21687 30.8031 2.91073 30.8031C2.6046 30.8031 2.375 30.5735 2.375 30.1908C2.375 29.8081 2.375 29.3489 2.375 28.9663C2.45153 28.0479 2.91073 27.2825 3.67607 26.7468C3.7526 26.6703 3.82913 26.6703 3.90567 26.5937C3.59953 25.5988 3.21687 24.6804 2.98727 23.762C1.76273 18.8639 2.52807 14.3484 5.3598 10.1391C5.51286 9.90949 5.5894 9.75642 5.43633 9.45029C5.05366 8.68496 5.20673 7.76656 5.819 7.15429C6.43126 6.54203 7.27313 6.31243 8.115 6.69509C8.26806 6.84816 8.42113 6.77163 8.5742 6.61856C9.49259 6.00629 10.3345 5.39403 11.2529 4.78176C11.6355 4.55216 11.9417 4.62869 12.0947 4.93483C12.2478 5.24096 12.0947 5.47056 11.7886 5.70016C10.9467 6.31243 10.1049 6.84816 9.26299 7.46042C9.10993 7.53696 9.10993 7.69002 9.18646 7.84309C9.49259 8.60842 9.33953 9.37376 8.80379 9.90949C8.26806 10.5218 7.57926 10.7514 6.7374 10.5218C6.5078 10.4452 6.43126 10.5218 6.2782 10.6748C4.74753 12.8943 3.82913 15.3434 3.59953 18.0985C3.2934 20.8537 3.7526 23.4559 4.82406 25.9815C4.9006 26.2111 5.05366 26.2876 5.3598 26.2876C6.43126 26.2876 7.50273 26.2876 8.49766 26.2876C8.57419 25.9815 8.49766 25.8284 8.3446 25.6753C7.4262 24.91 6.81393 23.9916 6.66086 22.8436C6.66086 22.614 6.58433 22.5375 6.35473 22.4609C4.97713 22.0783 4.51793 20.3945 5.51286 19.3231C5.5894 19.2465 5.66593 19.0169 5.66593 18.8639C5.66593 17.7159 5.66593 16.6444 5.66593 15.4964C5.66593 13.8127 6.7374 12.5882 8.26806 12.282C8.49766 12.2055 8.80379 12.2055 9.03339 12.2055C10.1814 12.2055 11.3294 12.2055 12.4774 12.2055C13.2427 12.2055 14.0081 12.4351 14.6203 12.9708C14.6969 13.0474 14.8499 13.0474 14.9265 13.0474C15.6153 12.7412 16.3041 12.6647 17.0694 12.6647C17.4521 12.6647 17.7582 12.6647 18.1409 12.6647C18.447 12.6647 18.6766 12.8943 18.7531 13.2004C18.7531 13.5066 18.5235 13.7362 18.1409 13.7362C17.6051 13.7362 17.0694 13.7362 16.5337 13.7362C15.1561 13.7362 14.0081 14.8076 13.9315 16.1852C13.855 17.3332 13.9315 18.4812 13.9315 19.6292C13.9315 19.7057 13.9315 19.7057 13.9315 19.7823C14.2377 19.8588 14.2377 19.7057 14.3142 19.4761C14.4673 18.6343 14.7734 17.8689 15.2326 17.1801C15.5387 16.7975 15.6918 16.7209 16.151 16.874C17.6051 17.3332 18.9827 17.7159 20.5134 17.8689C20.8961 17.8689 21.3552 17.8689 21.7379 17.7924C21.9675 17.7159 22.2737 17.5628 22.4267 17.4097C22.7329 17.1036 23.1155 17.1036 23.3451 17.4863C23.7278 18.0985 24.0339 18.7873 24.1104 19.4761C24.1104 19.6292 24.187 19.8588 24.4166 19.7823C24.4166 19.7057 24.4166 19.6292 24.4166 19.5527C24.4166 18.7873 24.4166 18.022 24.4166 17.2567C24.4166 16.874 24.34 16.6444 23.8808 16.6444C23.5747 16.5679 23.4216 16.3383 23.4216 16.0322C23.4216 15.4199 23.1921 14.9607 22.8094 14.5015C22.3502 13.9658 21.7379 13.7362 21.1257 13.7362C20.8961 13.7362 20.6665 13.7362 20.5134 13.7362C20.2073 13.7362 19.9777 13.5066 19.9777 13.2004C19.9777 12.8943 20.2073 12.6647 20.5134 12.6647C21.3553 12.5882 22.1971 12.7412 22.8859 13.1239C23.6512 12.3586 24.5696 12.129 25.5646 12.2055C26.7126 12.2055 27.784 12.2055 28.932 12.2055C30.3862 12.2055 31.5342 13.1239 31.9168 14.5015C31.9168 14.578 31.9934 14.7311 32.1464 14.8076C32.6056 15.1138 32.8352 15.573 32.8352 16.1087C32.8352 16.9505 32.8352 17.8689 32.8352 18.7108C32.8352 18.8639 32.9118 19.0935 33.0648 19.17C34.0598 20.2415 33.6006 21.8487 32.223 22.3079C31.9934 22.3844 31.9934 22.4609 31.9168 22.614C31.6872 23.762 31.1515 24.7569 30.2331 25.5223C30.08 25.5988 30.08 25.8284 29.927 25.9815L30.0035 26.058C30.5392 26.058 30.9984 26.058 31.5342 26.058C32.0699 26.058 32.6822 26.058 33.2179 26.058C33.524 26.058 33.6006 25.9815 33.7536 25.7519C34.8251 23.2263 35.2078 20.6241 34.9782 17.9455C34.7486 15.2668 33.8302 12.8178 32.376 10.5983C32.223 10.3687 32.0699 10.2922 31.8403 10.3687C31.075 10.5983 30.3862 10.3687 29.8504 9.75642C29.3147 9.14416 29.1616 8.45536 29.4678 7.69002C29.3912 7.69002 29.3147 7.53696 29.1616 7.38389C26.9422 5.62363 24.4166 4.47563 21.5849 4.01643C21.2787 3.93989 21.1257 4.01643 20.9726 4.32256C20.2073 5.70016 18.2174 5.62363 17.4521 4.32256C17.299 4.09296 17.1459 4.01643 16.9163 4.09296C15.9979 4.32256 15.0795 4.55216 14.1611 4.78176C14.0081 4.85829 13.7019 4.85829 13.5489 4.78176C13.3958 4.70523 13.2427 4.47563 13.3193 4.32256C13.3958 4.16949 13.5489 3.86336 13.7019 3.86336C14.6203 3.55723 15.4622 3.40416 16.3806 3.17456C16.4571 3.17456 16.4571 3.17456 16.5337 3.17456C16.9929 3.17456 17.2225 3.0215 17.3755 2.5623C17.7582 1.6439 18.447 1.26123 19.3654 1.26123C20.2073 1.33776 20.8961 1.72043 21.2022 2.5623C21.3553 2.86843 21.5083 2.94496 21.8144 3.0215C24.8758 3.4807 27.5544 4.62869 29.927 6.61856C30.1566 6.77163 30.3096 6.84816 30.6158 6.69509C31.3811 6.38896 32.2995 6.61856 32.8352 7.23083C33.371 7.84309 33.524 8.76149 33.1414 9.52682C33.0648 9.67989 32.9883 9.83296 33.1414 10.0626C36.5854 15.1903 37.0446 20.6241 34.7486 26.3641C34.7486 26.4407 34.672 26.5172 34.672 26.5937C34.8251 26.6703 34.9016 26.7468 35.0547 26.8999C35.82 27.5121 36.2027 28.2775 36.2027 29.2724C36.2027 30.8031 36.2027 32.4103 36.2027 33.9409C36.2027 34.8593 35.7435 35.3185 34.8251 35.3185C32.9883 35.3185 31.228 35.3185 29.3912 35.3185C29.2382 35.3185 29.0851 35.3185 28.932 35.3185C28.932 35.7777 28.932 36.1604 28.932 36.5431C29.0086 37.3084 28.7024 37.7676 28.0136 38.0737C22.1206 37.9972 16.3806 37.9972 10.5641 37.9972ZM23.1155 29.2724C22.8859 31.7215 21.0491 33.0225 19.2889 33.0225C18.3705 33.0225 17.6051 32.7929 16.9163 32.1807C15.9214 31.4153 15.4622 30.4204 15.3857 29.1959C14.5438 29.1959 13.7785 29.1959 12.9366 29.1959C11.559 29.1959 10.7171 30.0377 10.7171 31.4153C10.7171 33.0991 10.7171 34.7828 10.7171 36.4665C10.7171 36.7727 10.7937 36.9257 11.1763 36.9257C14.3142 36.9257 17.4521 36.9257 20.5899 36.9257C22.8859 36.9257 25.1819 36.9257 27.4779 36.9257C27.631 36.9257 27.8606 37.0023 27.8606 36.6961C27.8606 34.8593 27.8606 33.0991 27.8606 31.2623C27.8606 30.2673 27.0187 29.3489 26.1003 29.3489C25.0288 29.1959 24.1104 29.2724 23.1155 29.2724ZM22.8859 18.7873C20.4369 19.6292 18.2939 18.7108 16.0745 18.1751C15.9979 18.2516 15.9214 18.3281 15.9214 18.4812C15.5387 19.0169 15.3857 19.6292 15.3857 20.2415C15.3857 21.5425 15.3091 22.8436 15.4622 24.0681C15.6918 26.058 17.5286 27.5121 19.5185 27.3591C21.5083 27.206 23.1155 25.5988 23.1155 23.6089C23.1155 22.4609 23.1155 21.3129 23.1155 20.1649C23.1155 19.7057 22.9624 19.2465 22.8859 18.7873ZM7.96193 17.6393C7.8854 18.0985 7.73233 18.4812 7.6558 18.8639C7.57926 20.0119 7.57926 21.2364 7.6558 22.3844C7.80886 24.4508 9.64566 25.8284 11.6355 25.5223C12.6305 25.3692 13.4723 24.7569 14.0081 23.9151C13.9315 23.9151 13.855 23.8385 13.855 23.8385C12.5539 23.3028 12.0947 22.0783 12.7835 20.8537C12.7835 20.7772 12.8601 20.7772 12.8601 20.7007C12.8601 19.9353 12.8601 19.2465 12.8601 18.4812C11.1763 18.4812 9.64566 18.0985 7.96193 17.6393ZM34.9782 34.1705C34.9782 32.4103 34.9782 30.7265 34.9782 29.0428C34.9782 28.2775 34.3659 27.5121 33.6006 27.4356C32.6822 27.3591 31.8403 27.4356 30.9219 27.4356C30.6923 29.1193 30.2331 29.8081 28.779 30.65C28.779 31.8745 28.779 33.0225 28.779 34.1705C30.9219 34.1705 32.9118 34.1705 34.9782 34.1705ZM24.4931 23.8385C24.4931 23.9151 24.5696 23.9916 24.5696 23.9916C25.335 25.1396 26.8656 25.7519 28.1667 25.4457C29.6208 25.0631 30.6923 23.9151 30.7688 22.4609C30.8454 21.3895 30.8454 20.2415 30.7688 19.17C30.7688 18.7873 30.6158 18.3281 30.6158 17.9455C28.8555 18.7873 27.2483 18.2516 25.5646 17.9455C25.5646 18.7108 25.5646 19.4761 25.5646 20.2415C25.5646 20.4711 25.6411 20.6241 25.7176 20.7772C26.2534 21.8487 25.8707 23.1497 24.7227 23.6089C24.6462 23.762 24.5696 23.8385 24.4931 23.8385ZM23.8043 13.8892C24.0339 14.425 24.2635 14.9607 24.4931 15.4964C24.5696 15.726 24.6462 15.8026 24.7992 15.9556C25.0288 16.1852 25.2584 16.4148 25.488 16.721C25.5646 16.7975 25.7176 16.9506 25.7942 17.0271C26.3299 17.1802 26.7891 17.3332 27.3248 17.3332C28.0902 17.4097 28.779 17.4097 29.5443 17.3332C29.7739 17.3332 29.927 17.0271 30.08 16.874C30.2331 16.7209 30.3862 16.4914 30.5392 16.4914C30.6923 16.4914 30.9219 16.6444 31.075 16.7975C31.3046 17.1036 31.4576 17.4097 31.6107 17.7924C31.6107 17.1802 31.6107 16.6444 31.6107 16.1852C31.6107 16.1087 31.4576 15.9556 31.3811 15.8791C30.9984 15.8026 30.8454 15.573 30.8454 15.1903C30.7688 14.1954 30.0035 13.43 29.0086 13.43C27.7075 13.43 26.4064 13.43 25.1054 13.43C24.5696 13.3535 24.1104 13.5831 23.8043 13.8892ZM6.81393 17.6393C6.967 17.4097 7.12006 17.1801 7.1966 16.9505C7.50273 16.4914 7.6558 16.4148 8.19153 16.5679C8.95686 16.7975 9.72219 16.9505 10.4875 17.1801C11.2529 17.3332 12.0947 17.4863 12.9366 17.3332C12.8601 16.0322 13.0131 14.8076 13.9315 13.8892C13.5489 13.5831 13.1662 13.43 12.707 13.43C11.4059 13.43 10.1814 13.43 8.88033 13.43C7.73233 13.43 6.89046 14.1954 6.81393 15.3434C6.7374 16.0322 6.81393 16.874 6.81393 17.6393ZM20.8195 28.2009C19.595 28.5071 19.2123 28.5836 17.6051 28.2009C17.8347 29.1193 17.299 29.3489 16.5337 29.1959C16.6102 30.7265 17.8347 31.9511 19.3654 31.9511C20.8961 31.8745 22.1206 30.65 22.0441 29.2724C21.7379 29.1959 21.3553 29.1959 21.2022 29.0428C20.8961 28.8897 20.8961 28.5071 20.8195 28.2009ZM10.0283 29.5785C10.411 29.1959 10.7937 28.8897 11.1763 28.5836C11.7886 28.2009 12.4009 28.1244 13.1662 28.1244C13.3193 28.1244 13.4723 28.0479 13.4723 27.9713C13.5489 27.8183 13.5489 27.5887 13.6254 27.2825C12.9366 27.3591 12.4774 27.206 12.5539 26.3641C11.559 26.6703 10.6406 26.6703 9.72219 26.4407C9.64566 26.7468 9.56913 27.0529 9.41606 27.206C9.26299 27.3591 8.88033 27.3591 8.65073 27.4356C8.57419 28.2775 9.18646 29.1959 10.0283 29.5785ZM25.9472 26.4407C25.7942 27.206 25.7942 27.206 24.9523 27.3591C24.8758 28.0479 24.9523 28.1244 25.6411 28.1244C26.483 28.1244 27.2483 28.354 27.8606 28.9663C28.0902 29.1193 28.2432 29.3489 28.4728 29.5785C29.3912 29.1959 30.08 28.1244 29.927 27.3591C29.0851 27.2825 29.0086 27.3591 28.932 26.4407C27.8606 26.7468 26.9422 26.6703 25.9472 26.4407ZM7.27313 9.60336C7.80886 9.60336 8.26806 9.14416 8.26806 8.60842C8.26806 8.07269 7.80886 7.61349 7.34966 7.61349C6.81393 7.61349 6.35473 7.99616 6.35473 8.53189C6.2782 9.14416 6.7374 9.60336 7.27313 9.60336ZM19.2123 4.24603C19.7481 4.24603 20.2073 3.78683 20.2073 3.2511C20.2073 2.71536 19.7481 2.3327 19.2123 2.25616C18.6766 2.25616 18.2174 2.71536 18.2174 3.2511C18.2939 3.86336 18.6766 4.24603 19.2123 4.24603ZM31.228 9.60336C31.7638 9.60336 32.223 9.14416 32.223 8.60842C32.223 8.07269 31.8403 7.69002 31.3046 7.61349C30.7688 7.61349 30.3096 7.99616 30.3096 8.53189C30.2331 9.14416 30.6923 9.60336 31.228 9.60336ZM16.4571 28.1244C16.5337 27.6652 16.3806 27.3591 16.0745 27.3591C15.6153 27.2825 15.1561 27.3591 14.6203 27.3591C14.6203 27.6652 14.5438 27.8948 14.5438 28.1244C15.2326 28.1244 15.8449 28.1244 16.4571 28.1244ZM23.8043 27.3591C23.4216 27.3591 23.039 27.3591 22.6563 27.3591C22.1206 27.3591 21.891 27.5887 22.0441 28.1244C22.6563 28.1244 23.2686 28.1244 23.9574 28.1244C23.8808 27.8183 23.8808 27.5887 23.8043 27.3591ZM24.8758 26.2111C24.8758 25.5223 24.187 25.4457 23.9574 24.9865C23.7278 25.4457 23.5747 25.7519 23.3451 26.2111C23.8808 26.2111 24.34 26.2111 24.8758 26.2111ZM15.0795 26.2111C14.8499 25.8284 14.6969 25.4457 14.4673 25.0631C14.2377 25.2927 14.0846 25.4457 13.855 25.5988C13.6254 25.7519 13.3958 25.9049 13.5489 26.2111C14.1611 26.2111 14.6203 26.2111 15.0795 26.2111ZM14.2377 22.7671C14.2377 22.1548 14.2377 21.6191 14.2377 21.0068C13.7785 21.0833 13.5489 21.3895 13.5489 21.7721C13.5489 22.2313 13.7785 22.614 14.2377 22.7671ZM24.187 21.0068C24.187 21.6191 24.187 22.1548 24.187 22.7671C24.6462 22.6905 24.8758 22.3079 24.8758 21.9252C24.9523 21.466 24.6462 21.1599 24.187 21.0068ZM6.58433 19.9353C6.20166 20.0884 6.0486 20.3945 6.0486 20.7007C6.0486 21.0068 6.20166 21.2364 6.58433 21.3895C6.58433 20.9303 6.58433 20.4711 6.58433 19.9353ZM31.9168 21.3895C32.2995 21.2364 32.4526 21.0068 32.4526 20.6241C32.4526 20.318 32.2995 20.0884 31.9168 19.9353C31.9168 20.4711 31.9168 20.9303 31.9168 21.3895Z" />
</g>
</symbol>
<symbol id="icons" viewBox="0 0 39 39">
<g clip-path="url(#clip0_1458_23944)">
<path d="M19.5523 38.9259C18.8476 38.7633 18.1972 38.5464 17.7635 37.9502C17.4925 37.5708 17.2757 37.0829 17.0589 36.6493C16.9505 36.4324 16.8963 36.324 16.6794 36.2698C15.2701 35.9988 13.8608 35.511 12.5599 34.8605C10.5001 33.8306 8.71129 32.4213 7.24775 30.6325C7.08513 30.4157 6.92252 30.4157 6.7057 30.4699C5.35057 30.9577 3.88703 30.3615 3.18237 29.1148C2.4777 27.8138 2.74872 26.2419 3.94124 25.3746C4.15806 25.212 4.21226 25.0494 4.10385 24.7783C3.12816 21.5802 3.12816 18.3279 4.10385 15.1298C4.15806 14.913 4.15806 14.7504 3.94124 14.5878C2.74872 13.7205 2.42349 12.1486 3.12816 10.8476C3.83283 9.54671 5.29637 9.00466 6.7057 9.4925C6.97672 9.60091 7.08513 9.4925 7.24775 9.32989C8.71129 7.54112 10.5001 6.13179 12.5599 5.10189C13.8066 4.45143 15.1617 4.01779 16.5168 3.74676C16.8421 3.69256 17.0589 3.58415 17.1673 3.1505C17.3841 1.84958 18.6308 0.9823 19.986 0.9823C21.3411 0.9823 22.5336 1.95799 22.8046 3.25891C22.8588 3.58415 23.0214 3.69256 23.2925 3.74676C25.5149 4.1804 27.5205 5.04768 29.3634 6.34861C30.6102 7.21589 31.6943 8.19158 32.6157 9.32989C32.7784 9.54671 32.941 9.60091 33.212 9.4925C34.5129 9.00466 36.0307 9.60091 36.7353 10.7934C37.44 12.0943 37.169 13.6663 36.0307 14.5336C35.8138 14.6962 35.7596 14.8588 35.8138 15.1298C36.7895 18.3279 36.7895 21.5802 35.8138 24.7783C35.7596 24.9952 35.7596 25.1578 35.9765 25.3204C37.0606 26.1335 37.44 27.6512 36.8979 28.8979C36.3017 30.1989 34.8924 30.9577 33.5914 30.5783C32.9952 30.4157 32.7242 30.5783 32.3447 31.0119C29.9597 33.7222 26.9242 35.4568 23.4009 36.2156C23.0756 36.2698 22.8588 36.4324 22.8046 36.8119C22.4794 37.9502 21.7205 38.6006 20.6364 38.9259C20.528 38.9259 20.4738 38.9801 20.3654 38.9801C20.0402 38.9259 19.8233 38.9259 19.5523 38.9259ZM19.9317 11.6607C15.3785 11.6607 11.6384 15.4009 11.6384 19.9541C11.6384 24.5073 15.3785 28.2475 19.9317 28.2475C24.485 28.2475 28.2251 24.5073 28.2251 19.9541C28.2251 15.4009 24.485 11.6607 19.9317 11.6607ZM17.1131 4.83086C13.3729 5.53553 10.3374 7.3785 7.95242 10.3056C8.60288 11.1187 8.8197 11.9859 8.60288 12.9616C8.60288 13.07 8.71129 13.1785 8.76549 13.2327C9.47016 13.6121 10.1748 13.9915 10.8795 14.371C11.2047 14.5336 11.53 14.7504 11.8552 14.913C13.8066 12.0401 16.4626 10.4682 19.9317 10.4682C23.4009 10.4682 26.0027 12.0943 27.9541 14.913C28.8756 14.4252 29.7429 13.9373 30.6102 13.4495C31.0438 13.2327 31.3148 13.0158 31.2064 12.4196C31.0438 11.6065 31.369 10.9018 31.9111 10.2514C29.5261 7.3243 26.4906 5.48132 22.7504 4.77666C22.371 5.91497 21.6121 6.56543 20.4738 6.83645C20.4738 7.64953 20.4738 8.46261 20.4738 9.22148C20.0944 9.22148 19.7149 9.22148 19.2813 9.22148C19.2813 8.4084 19.2813 7.59532 19.2813 6.83645C18.2514 6.56543 17.4925 5.91497 17.1131 4.83086ZM7.95242 29.6026C10.3916 32.5297 13.3729 34.3727 17.1131 35.0773C17.4925 33.9932 18.2514 33.2885 19.3897 33.0175C19.3897 32.2044 19.3897 31.3914 19.3897 30.6325C19.8233 30.6325 20.1486 30.6325 20.5822 30.6325C20.5822 31.4456 20.5822 32.2586 20.5822 33.0175C21.7205 33.2885 22.4252 33.9932 22.8046 35.0773C26.5448 34.3184 29.5803 32.5297 31.9653 29.6026C31.2606 28.5185 31.2064 28.1933 31.3148 26.9466C31.3148 26.8381 31.2606 26.7297 31.2064 26.6755C30.1765 26.0793 29.0924 25.5372 28.0083 24.941C26.0569 27.8138 23.4009 29.3858 19.9317 29.3858C16.4626 29.3858 13.8066 27.7596 11.8552 24.941C10.7711 25.5372 9.74118 26.0793 8.71129 26.6755C8.65708 26.7297 8.54867 26.8381 8.60288 26.9466C8.8197 27.9764 8.54867 28.8437 7.95242 29.6026ZM11.3131 23.9111C10.1748 21.255 10.1748 18.599 11.3131 15.9429C10.1748 15.3467 9.09072 14.6962 7.95242 14.0999C7.19354 14.913 6.32626 15.2382 5.24216 15.1298C4.26647 18.3279 4.26647 21.4718 5.24216 24.6699C6.32626 24.5615 7.19354 24.941 7.95242 25.6998C9.09072 25.1578 10.1748 24.5615 11.3131 23.9111ZM31.9111 25.754C32.6157 25.0494 33.4288 24.6157 34.4587 24.6699C34.5129 24.6699 34.6755 24.5073 34.7297 24.4531C35.2718 22.7185 35.4886 20.984 35.3802 19.141C35.326 17.7859 35.1092 16.485 34.6213 15.184C33.5914 15.2924 32.7242 14.9672 32.0195 14.2626C31.9653 14.2083 31.8027 14.2083 31.6943 14.2626C31.2064 14.5336 30.7186 14.8046 30.2849 15.0214C29.7429 15.3467 29.1466 15.6177 28.6046 15.9429C29.7429 18.599 29.7429 21.255 28.6046 23.9111C29.6887 24.5615 30.7728 25.1578 31.9111 25.754ZM19.9317 5.69814C20.9074 5.69814 21.7205 4.88507 21.7205 3.96358C21.7205 2.98789 20.9616 2.17481 19.986 2.17481C19.0103 2.17481 18.1972 2.98789 18.1972 3.96358C18.143 4.88507 18.9561 5.69814 19.9317 5.69814ZM7.46457 12.257C7.46457 11.2813 6.65149 10.4682 5.6758 10.4682C4.70011 10.4682 3.88703 11.2813 3.88703 12.257C3.88703 13.2327 4.70011 13.9915 5.6758 13.9915C6.7057 13.9915 7.46457 13.1784 7.46457 12.257ZM35.9223 12.257C35.9223 11.2813 35.1092 10.4682 34.1877 10.4682C33.212 10.4682 32.3989 11.2271 32.3989 12.2028C32.3989 13.1785 33.212 13.9915 34.1877 13.9915C35.1092 14.0457 35.9223 13.2327 35.9223 12.257ZM7.46457 27.6512C7.46457 26.6755 6.65149 25.8624 5.6758 25.8624C4.70011 25.8624 3.88703 26.6755 3.88703 27.6512C3.88703 28.6269 4.70011 29.44 5.6758 29.44C6.7057 29.44 7.46457 28.6269 7.46457 27.6512ZM35.9223 27.6512C35.9223 26.6755 35.1092 25.8624 34.1877 25.8624C33.212 25.8624 32.3989 26.6213 32.3989 27.597C32.3989 28.5727 33.212 29.3858 34.1877 29.3858C35.1092 29.44 35.9223 28.6269 35.9223 27.6512ZM19.9317 34.21C18.9561 34.21 18.143 35.0231 18.143 35.9446C18.143 36.9203 18.9561 37.7334 19.9317 37.7334C20.9074 37.7334 21.7205 36.9203 21.7205 35.9446C21.7205 34.9689 20.9074 34.21 19.9317 34.21Z"/>
<path d="M18.034 19.249C16.8956 18.219 16.733 16.9723 17.0583 15.617C17.3835 14.2076 18.7929 13.2861 20.1481 13.3945C21.7202 13.5571 22.7501 14.7497 22.8586 16.3218C22.9128 17.4059 22.6959 18.3817 21.7744 19.1948C21.937 19.3032 22.0996 19.4658 22.2623 19.5742C23.1296 20.1163 24.0511 20.6584 24.9185 21.1463C25.1353 21.2547 25.2437 21.4173 25.1895 21.6884C25.1895 22.2305 25.1895 22.7725 25.1895 23.2604C25.2437 23.9651 24.8643 24.453 24.268 24.6698C23.6717 24.8867 23.0212 25.0493 22.4249 25.1035C20.4734 25.2661 18.4677 25.3203 16.5162 24.9951C16.1909 24.9409 15.8657 24.8324 15.5404 24.724C14.8899 24.453 14.5105 23.9651 14.5647 23.2604C14.5647 22.7183 14.5647 22.1762 14.5647 21.6342C14.5647 21.4173 14.6189 21.3089 14.7815 21.2005C15.7031 20.6584 16.5704 20.1163 17.4919 19.5742C17.7088 19.52 17.8714 19.4116 18.034 19.249ZM19.6061 24.1277C20.6902 24.0735 21.4491 24.0735 22.2081 24.0193C22.6959 23.9651 23.238 23.8567 23.7259 23.7483C23.9969 23.6941 24.0511 23.5315 24.0511 23.2604C24.2138 22.3931 23.8885 21.7968 23.0212 21.4715C22.9128 21.4173 22.8044 21.3631 22.7501 21.3089C22.0996 20.8752 21.4491 20.3874 20.7986 19.9537C20.7444 19.8995 20.5818 19.8995 20.4734 19.8995C20.0397 19.8995 19.6603 19.8995 19.2266 19.8995C19.1182 19.8995 18.9556 19.8995 18.9014 19.9537C18.1966 20.7126 17.2751 21.1463 16.4078 21.6342C15.8657 21.9594 15.5947 22.2847 15.7031 22.9352C15.7573 23.6941 15.7573 23.6941 16.462 23.9109C16.5162 23.9109 16.5162 23.9109 16.5704 23.9109C17.763 23.9651 18.8471 24.0735 19.6061 24.1277ZM18.1424 16.647C18.1424 16.8096 18.1424 16.9722 18.1424 17.1349C18.1966 18.0564 18.9556 18.7069 19.8229 18.7611C20.6902 18.8153 21.5034 18.219 21.6118 17.3517C21.666 16.8638 21.666 16.376 21.5576 15.9423C21.2865 14.8581 19.9855 14.316 19.0098 14.8581C18.4135 15.2376 18.1424 15.8881 18.1424 16.647Z" />
<path d="M20.528 4.50532C20.1486 4.50532 19.7691 4.50532 19.3896 4.50532C19.3896 4.12586 19.3896 3.7464 19.3896 3.36694C19.7691 3.36694 20.1486 3.36694 20.528 3.36694C20.528 3.7464 20.528 4.12586 20.528 4.50532Z" />
<path d="M6.27119 12.7978C5.89173 12.7978 5.51227 12.7978 5.13281 12.7978C5.13281 12.4183 5.13281 12.0389 5.13281 11.6594C5.51227 11.6594 5.89173 11.6594 6.27119 11.6594C6.27119 12.0389 6.27119 12.4183 6.27119 12.7978Z" />
<path d="M34.7292 11.6594C34.7292 12.0389 34.7292 12.4183 34.7292 12.7978C34.3497 12.7978 33.9703 12.7978 33.5908 12.7978C33.5908 12.4183 33.5908 12.0389 33.5908 11.6594C33.9703 11.6594 34.3497 11.6594 34.7292 11.6594Z"/>
<path d="M6.27119 28.2471C5.89173 28.2471 5.51227 28.2471 5.13281 28.2471C5.13281 27.8677 5.13281 27.4882 5.13281 27.1088C5.51227 27.1088 5.89173 27.1088 6.27119 27.1088C6.27119 27.4882 6.27119 27.8677 6.27119 28.2471Z" />
<path d="M34.7292 27.1088C34.7292 27.4882 34.7292 27.8677 34.7292 28.2471C34.3497 28.2471 33.9703 28.2471 33.5908 28.2471C33.5908 27.8677 33.5908 27.4882 33.5908 27.1088C33.9703 27.1088 34.3497 27.1088 34.7292 27.1088Z"/>
<path d="M20.528 35.4022C20.528 35.7817 20.528 36.1611 20.528 36.5406C20.1486 36.5406 19.7691 36.5406 19.3896 36.5406C19.3896 36.1611 19.3896 35.7817 19.3896 35.4022C19.7691 35.4022 20.0944 35.4022 20.528 35.4022Z"/>
</g>

</symbol>
<symbol id="burger-menu" viewBox="0 0 42 28">
<g>
<rect width="42" height="4" rx="2" />
<rect y="11.8182" width="42" height="4" rx="2" />
<rect x="10" y="24" width="32" height="4" rx="2"/>
</g>
</symbol>


</svg>